<?xml version="1.0" encoding="UTF-8"?>
<!-- Generator: visioncortex VTracer 0.6.3 -->
<svg version="1.1" xmlns="http://www.w3.org/2000/svg" width="1280" height="1280">
<path d="M0 0 C1.65 0 3.3 0 5 0 C5 0.99 5 1.98 5 3 C6.08 3.37 6.08 3.37 7.19 3.75 C10.28 5.12 12.51 6.72 15 9 C15 9.66 15 10.32 15 11 C15.72 11.06 16.44 11.12 17.19 11.19 C20.88 12.25 22.33 14.27 25 17 C26.69 17.99 28.39 18.98 30.12 19.91 C32.19 21.11 34.04 22.48 35.94 23.94 C42.46 28.92 49.43 32.84 56.68 36.67 C59 38 59 38 61 40 C62.65 40.71 64.32 41.37 66 42 C67.67 42.67 69.33 43.33 71 44 C71 44.66 71 45.32 71 46 C72.02 46.15 72.02 46.15 73.06 46.31 C76.67 47.16 79.66 48.39 83 50 C83.33 50.66 83.66 51.32 84 52 C84.99 51.67 85.98 51.34 87 51 C87 51.66 87 52.32 87 53 C87.99 53 88.98 53 90 53 C90 53.66 90 54.32 90 55 C90.64 54.94 91.28 54.88 91.94 54.81 C97.18 55.13 101.95 57.27 106.88 59.02 C114.69 61.63 122.2 62.82 130.35 63.61 C134 64 134 64 136.07 64.54 C148.73 67.58 162.83 63.51 174.82 59.65 C177.19 58.94 179.57 58.45 182 58 C182 57.34 182 56.68 182 56 C182.76 55.73 183.53 55.46 184.31 55.19 C186.96 54.21 186.96 54.21 188.44 52.56 C190 51 190 51 192.88 49.62 C196.15 48.12 196.15 48.12 198.69 45.31 C199.45 44.55 200.21 43.79 201 43 C201.99 43 202.98 43 204 43 C204.36 41.91 204.36 41.91 204.72 40.8 C206.19 37.58 207.93 35.67 210.44 33.19 C211.22 32.4 212 31.61 212.81 30.79 C215 29 215 29 218 29 C217.6 35.24 217.1 41.3 215.6 47.38 C214.62 51.66 213.89 56 213.14 60.33 C212.63 63.16 212.09 65.79 211 68.45 C209.59 72.05 209.1 75.7 208.5 79.5 C207.75 84.26 207 88.58 205 93 C203.83 96.16 203 98.97 202.56 102.31 C202.13 105.16 201.61 107.37 200.69 110.05 C199.52 113.48 198.37 116.92 197.25 120.37 C196.64 122.2 196.04 124.04 195.44 125.88 C195.13 126.81 194.83 127.75 194.52 128.71 C194.07 130.06 194.07 130.06 193.62 131.43 C193.36 132.24 193.09 133.04 192.82 133.87 C192 136 192 136 190 139 C189.29 140.99 188.63 142.99 188 145 C185.69 152.2 183.2 159.15 180 166 C179.27 167.6 178.54 169.21 177.81 170.81 C177.33 171.87 177.33 171.87 176.83 172.96 C175.94 174.97 175.94 174.97 175.57 177.07 C174.87 179.43 173.75 180.31 172 182 C170.93 183.96 170.93 183.96 170.06 186.12 C169.72 186.92 169.38 187.71 169.04 188.53 C168.69 189.34 168.35 190.16 168 191 C162.81 203.3 162.81 203.3 158.38 207.56 C156.83 209 156.83 209 156.06 211.38 C154.82 214.45 153.08 216.4 151 219 C149.98 220.66 148.98 222.32 148 224 C145.89 227.59 143.68 230.8 141 234 C138.72 237.05 136.53 240.12 134.57 243.39 C132.94 246.09 131.22 248.71 129.44 251.31 C128.84 252.2 128.24 253.08 127.62 253.99 C127.09 254.65 126.55 255.32 126 256 C125.34 256 124.68 256 124 256 C123.67 256.99 123.34 257.98 123 259 C121.55 260.43 121.55 260.43 119.64 261.98 C113.5 267.19 107.96 273.01 102.34 278.76 C100.9 280.22 99.46 281.68 98.02 283.14 C97.17 284 96.33 284.86 95.46 285.75 C93.09 287.92 90.78 289.41 88 291 C87.01 291.83 86.02 292.65 85 293.5 C82 296 82 296 79.38 297.56 C76.89 298.92 76.89 298.92 74.94 301.19 C73 303 73 303 69 303 C68.67 303.99 68.34 304.98 68 306 C65.52 307.65 65.52 307.65 62.38 309.38 C58.97 311.25 55.74 313.15 52.63 315.47 C48.84 318.23 44.82 320.19 40.56 322.12 C39.85 322.46 39.14 322.79 38.4 323.14 C25.75 329 25.75 329 21 329 C21 329.66 21 330.32 21 331 C16.68 332.1 12.38 333.18 8 334 C8 334.66 8 335.32 8 336 C6.27 336.48 4.54 336.96 2.81 337.44 C1.37 337.84 1.37 337.84 -0.11 338.25 C-1.96 338.73 -3.84 339.16 -5.72 339.54 C-8.05 339.92 -8.05 339.92 -10.25 341 C-13.5 342.18 -16.48 342.42 -19.91 342.66 C-22.3 342.9 -22.3 342.9 -25 345 C-26.97 345.47 -26.97 345.47 -29.2 345.78 C-30.02 345.9 -30.84 346.02 -31.68 346.14 C-32.95 346.32 -32.95 346.32 -34.25 346.5 C-38.79 347.14 -43.18 347.76 -47.59 349.06 C-51.55 350.15 -55.23 350.41 -59.31 350.56 C-64.31 350.59 -64.31 350.59 -69 352 C-71.55 352.23 -74.07 352.42 -76.62 352.56 C-77.33 352.61 -78.04 352.65 -78.77 352.69 C-80.51 352.8 -82.26 352.9 -84 353 C-84 351 -84 351 -82.5 349 C-79.63 346.7 -77.53 346.23 -74 345.49 C-71.09 344.78 -68.65 343.38 -66 342 C-64.34 341.32 -62.67 340.65 -61 340 C-56.09 338.07 -51.47 335.78 -46.81 333.31 C-44 332 -44 332 -41 332 C-41 331.34 -41 330.68 -41 330 C-38.09 327.96 -36.6 327 -33 327 C-33 326.34 -33 325.68 -33 325 C-32.09 324.57 -31.18 324.13 -30.25 323.69 C-27.07 322.16 -27.07 322.16 -24.81 320.31 C-23 319 -23 319 -20 319 C-20 318.34 -20 317.68 -20 317 C-18.49 315.95 -18.49 315.95 -16.31 314.69 C-10.94 311.27 -6.74 306.96 -2.34 302.41 C0.77 299.19 2.76 297.41 7 296 C7.33 295.01 7.66 294.02 8 293 C9.31 291.64 10.65 290.31 12 289 C14.55 286.13 17.03 283.21 19.43 280.21 C20.58 278.78 21.78 277.38 23 276 C23.66 276 24.32 276 25 276 C25.1 275.25 25.19 274.51 25.29 273.74 C26.1 270.61 27.13 269.41 29.38 267.12 C32.66 263.58 34.39 260.53 36 256 C36.66 256 37.32 256 38 256 C38.19 254.86 38.19 254.86 38.38 253.69 C39 251 39 251 41 248 C41.66 248 42.32 248 43 248 C43.13 247.29 43.25 246.58 43.38 245.85 C44.02 242.91 44.91 240.2 45.94 237.38 C46.45 235.96 46.45 235.96 46.96 234.52 C48 232 48 232 50 229 C50.39 227.01 50.73 225.01 51 223 C51.66 223 52.32 223 53 223 C53.19 221.05 53.19 221.05 53.38 219.06 C54.02 213.23 55.14 207.57 57 202 C57.35 200 57.69 198 58 196 C58.49 192.85 58.99 190.02 60 187 C60.1 185.54 60.15 184.07 60.16 182.6 C60.17 181.71 60.18 180.82 60.19 179.9 C60.19 178.94 60.2 177.98 60.2 176.99 C60.21 175.99 60.21 174.99 60.22 173.95 C60.23 171.83 60.24 169.7 60.24 167.57 C60.25 164.37 60.28 161.17 60.31 157.97 C60.37 147.28 59.97 137.28 57.55 126.84 C57 124 57 124 58 122 C57.34 121.67 56.68 121.34 56 121 C55.79 118.94 55.59 116.87 55.41 114.8 C54.62 109.37 52.69 104.21 51 99 C50.65 97.76 50.3 96.52 49.94 95.25 C47.87 88.07 45.36 81.35 42.18 74.58 C41.04 72.08 40.01 69.56 39 67 C34.43 55.82 28.54 45.13 22 35 C20.89 33.24 19.78 31.46 18.69 29.69 C18.18 28.87 17.66 28.05 17.14 27.2 C16 25 16 25 16 22 C14.51 21.5 14.51 21.5 13 21 C12.5 19.51 12.5 19.51 12 18 C11.01 17.01 11.01 17.01 10 16 C7.16 12.74 4.83 9.92 3 6 C2.46 5.3 1.93 4.6 1.38 3.88 C0 2 0 2 0 0 Z " fill="#E7F7F7" transform="translate(627,310)"/>
<path d="M0 0 C2.32 -0.24 2.32 -0.24 5 0 C6.52 1.62 6.52 1.62 7.81 3.88 C10.62 8.51 13.84 12.53 17.36 16.64 C19.11 19.16 19.63 20.98 20 24 C20.66 24 21.32 24 22 24 C22.45 24.95 22.91 25.9 23.38 26.88 C24.8 30 24.8 30 27 32 C27.75 33.7 28.5 35.41 29.21 37.14 C29.92 38.81 30.74 40.44 31.56 42.06 C33 45 33 45 34.06 48.31 C34.7 51.14 34.7 51.14 37 52 C37.85 54.29 37.85 54.29 38.62 57.06 C38.89 57.98 39.15 58.9 39.41 59.85 C39.61 60.56 39.8 61.27 40 62 C40.66 62 41.32 62 42 62 C42.16 62.68 42.32 63.36 42.48 64.05 C43.99 70.07 46 75.26 48.87 80.75 C52.03 87.04 52.93 94.25 54.32 101.09 C54.7 103.88 54.7 103.88 56 105 C56.37 106.97 56.7 108.95 57 110.94 C57.56 115.11 57.56 115.11 59 119 C59.21 121.14 59.37 123.29 59.5 125.44 C59.72 128.89 59.9 131.71 61 135 C61.1 137.94 61.14 140.85 61.13 143.79 C61.13 144.65 61.13 145.51 61.14 146.39 C61.14 148.21 61.13 150.02 61.13 151.83 C61.13 154.62 61.13 157.41 61.14 160.2 C61.14 161.96 61.13 163.72 61.13 165.48 C61.13 166.32 61.14 167.15 61.14 168.02 C61.11 173.89 61.11 173.89 60 175 C59.71 178.46 59.55 181.92 59.38 185.39 C59.01 188.91 58.18 191.68 57 195 C56.52 197.27 56.06 199.54 55.62 201.81 C54.41 207.67 52.65 212.67 50 218 C49.32 219.66 48.65 221.33 48 223 C47.34 223 46.68 223 46 223 C45.85 223.96 45.85 223.96 45.69 224.94 C45.1 227.56 44.42 230.07 43.62 232.62 C43.39 233.38 43.16 234.14 42.91 234.91 C41.92 237.18 40.81 238.34 39 240 C37.6 242.2 36.3 244.42 35.1 246.74 C32.9 250.86 30.7 253.08 27 256 C26.71 256.77 26.42 257.53 26.12 258.32 C24.78 261.52 23.09 263.3 20.64 265.76 C19.77 266.63 18.9 267.5 18.01 268.4 C17.1 269.3 16.19 270.2 15.25 271.12 C14.36 272.03 13.46 272.94 12.54 273.87 C11.67 274.74 10.79 275.61 9.89 276.51 C8.7 277.69 8.7 277.69 7.49 278.9 C4.81 281.16 2.16 282.52 -1 284 C-3.59 285.95 -6.03 288.03 -8.5 290.12 C-11 292 -11 292 -13.56 293 C-16.43 294.18 -17.86 295.79 -20 298 C-23.1 299.94 -24.14 300 -28 300 C-28 300.66 -28 301.32 -28 302 C-28.78 302.35 -29.56 302.7 -30.37 303.06 C-31.38 303.51 -32.39 303.97 -33.44 304.44 C-34.45 304.89 -35.46 305.34 -36.5 305.81 C-38.89 306.77 -38.89 306.77 -40 308 C-42 308.04 -44 308.04 -46 308 C-46 308.66 -46 309.32 -46 310 C-52.62 313.12 -52.62 313.12 -56 312 C-55.24 311.61 -54.47 311.22 -53.69 310.81 C-50.89 309.22 -50.89 309.22 -49.68 306.62 C-47.66 303.47 -45.62 302.13 -42.44 300.19 C-41.47 299.58 -40.5 298.98 -39.5 298.36 C-37 297 -37 297 -35 297 C-35 296.34 -35 295.68 -35 295 C-31.72 291.62 -28.11 288.66 -24.06 286.25 C-21.68 285.11 -21.68 285.11 -21 282 C-19.35 280.97 -17.68 279.98 -16 279 C-12.49 275.91 -9.24 272.56 -5.94 269.25 C-5.04 268.37 -4.14 267.49 -3.22 266.58 C1.37 262 5.18 257.85 8 252 C8.66 252 9.32 252 10 252 C10.08 251.26 10.16 250.51 10.25 249.75 C11.16 246.42 12.58 245.42 15 243 C16.04 240.68 17.04 238.35 18 236 C18.66 235.34 19.32 234.68 20 234 C25.45 226.43 28.66 217.97 31 209 C31.66 209 32.32 209 33 209 C33.06 208.37 33.12 207.75 33.18 207.1 C33.27 206.28 33.35 205.47 33.44 204.62 C33.56 203.41 33.56 203.41 33.68 202.16 C34 200 34 200 35 198 C35.35 195.67 35.68 193.34 36 191 C36.15 190.31 36.31 189.62 36.46 188.9 C37.26 184.59 37.64 180.24 38.06 175.88 C38.15 174.99 38.24 174.1 38.34 173.19 C39.31 163.06 39.1 153.18 38.12 143.06 C38.03 142.1 37.94 141.14 37.85 140.16 C36.94 130.94 35.92 122.11 32.72 113.38 C31.53 109.47 31.06 105.45 30.53 101.41 C30.35 100.61 30.18 99.82 30 99 C29.34 98.67 28.68 98.34 28 98 C26.51 94.4 25.25 90.79 24.06 87.08 C21.76 79.96 19.06 73.64 15.38 67.14 C14.54 65.65 14.54 65.65 13.69 64.12 C12.89 62.74 12.89 62.74 12.07 61.32 C11.54 60.17 11.54 60.17 11 59 C11.33 58.34 11.66 57.68 12 57 C11.34 57 10.68 57 10 57 C8.04 53.33 6.61 50.13 6 46 C5.01 46 4.02 46 3 46 C2.67 46.99 2.34 47.98 2 49 C1.34 49 0.68 49 0 49 C-0.08 49.68 -0.16 50.36 -0.25 51.06 C-2.03 58.02 -7.18 65.52 -12.5 70.36 C-14.18 72.03 -14.18 72.03 -15.26 74.73 C-17.52 78.97 -20.48 81.95 -23.88 85.31 C-24.49 85.94 -25.1 86.58 -25.73 87.23 C-31.32 92.81 -31.32 92.81 -36 93 C-36.5 94.49 -36.5 94.49 -37 96 C-38.71 97.82 -38.71 97.82 -40.81 99.69 C-41.84 100.62 -41.84 100.62 -42.89 101.57 C-45 103 -45 103 -49 103 C-49 103.66 -49 104.32 -49 105 C-50.65 105.33 -52.3 105.66 -54 106 C-54 106.66 -54 107.32 -54 108 C-55.65 108 -57.3 108 -59 108 C-59.5 109.49 -59.5 109.49 -60 111 C-62.55 112.1 -62.55 112.1 -65.75 113.06 C-71.47 114.78 -71.47 114.78 -77 117 C-77.33 117.66 -77.66 118.32 -78 119 C-77.38 119.27 -76.76 119.54 -76.12 119.81 C-74 121 -74 121 -72 124 C-72 124.99 -72 125.98 -72 127 C-71.41 127.26 -70.82 127.51 -70.21 127.77 C-64.06 131.18 -59.01 138.74 -56 145 C-56 145.99 -56 146.98 -56 148 C-55.34 148 -54.68 148 -54 148 C-47.9 156.86 -42.92 166.99 -39 177 C-38.5 178.11 -38.01 179.23 -37.5 180.38 C-36.44 182.93 -35.6 185.24 -34.88 187.88 C-34.32 190.84 -34.32 190.84 -33 192 C-31.52 197.17 -30.75 202.41 -30.34 207.76 C-30.05 210.15 -30.05 210.15 -29.01 212.89 C-26.06 221.98 -26.77 232.54 -27 242 C-27.03 243.13 -27.03 243.13 -27.05 244.28 C-27.12 246.77 -27.21 249.26 -27.31 251.75 C-27.33 252.53 -27.36 253.31 -27.38 254.11 C-27.65 259.81 -28.96 264.69 -31 270 C-31.66 269.67 -32.32 269.34 -33 269 C-32.93 266.98 -32.87 264.96 -32.8 262.95 C-32.82 260.76 -32.82 260.76 -35 259 C-35.38 256.61 -35.38 256.61 -35.56 253.75 C-35.94 248.67 -36.38 243.86 -38 239 C-38.54 236.69 -39.06 234.38 -39.56 232.06 C-39.83 230.84 -40.1 229.61 -40.38 228.35 C-41 225 -41 225 -41 221 C-41.66 220.67 -42.32 220.34 -43 220 C-44.24 216.83 -45 214.42 -45 211 C-45.66 210.67 -46.32 210.34 -47 210 C-47.13 209.14 -47.27 208.27 -47.4 207.38 C-48.1 203.45 -49.68 200.35 -51.56 196.88 C-53.63 193.06 -55 190.49 -55 186 C-55.99 185.67 -56.98 185.34 -58 185 C-59.54 182.35 -59.54 182.35 -61.06 179.06 C-63.04 174.69 -63.04 174.69 -66 171 C-66.45 170.07 -66.91 169.14 -67.38 168.19 C-68.97 165.06 -70.78 162.7 -73 160 C-73.43 159.24 -73.87 158.47 -74.31 157.69 C-76.3 154.51 -78.64 151.87 -81.14 149.08 C-82.28 147.8 -83.41 146.51 -84.52 145.2 C-88.49 140.51 -92.75 136.12 -97.06 131.75 C-97.65 131.15 -98.24 130.54 -98.85 129.92 C-102.33 126.43 -105.82 123.66 -110 121 C-111.25 119.94 -112.49 118.86 -113.69 117.75 C-119.17 112.85 -125.15 108.58 -131.26 104.49 C-132.88 103.39 -134.45 102.2 -136 101 C-136 100.01 -136 99.02 -136 98 C-135.33 98.01 -134.66 98.02 -133.97 98.04 C-115.9 98.2 -98.21 96.93 -81 91 C-80.33 90.78 -79.66 90.55 -78.97 90.32 C-74.25 88.65 -69.84 86.49 -65.39 84.18 C-62.97 82.99 -60.52 81.98 -58 81 C-54.54 79.49 -51.94 77.36 -49 75 C-47.82 74.32 -47.82 74.32 -46.61 73.63 C-43.89 71.93 -41.87 70.11 -39.61 67.84 C-38.82 67.05 -38.03 66.25 -37.21 65.44 C-36.4 64.61 -35.59 63.79 -34.75 62.94 C-33.51 61.7 -33.51 61.7 -32.24 60.43 C-28.14 56.57 -28.14 56.57 -25 52 C-24.34 52 -23.68 52 -23 52 C-22.9 51.24 -22.79 50.47 -22.69 49.69 C-21.91 46.67 -21.14 46.13 -19 44 C-18.12 42.55 -17.29 41.06 -16.5 39.56 C-15.24 37.18 -14.01 35.01 -12.39 32.86 C-10.91 30.89 -10.43 29.4 -10 27 C-9.34 27 -8.68 27 -8 27 C-8.08 26.34 -8.16 25.68 -8.25 25 C-7.95 21.4 -6.69 19.19 -5.02 16.04 C-3.57 13.13 -2.8 10.14 -2 7 C-1.63 5.69 -1.25 4.37 -0.88 3.06 C-0.59 2.05 -0.3 1.04 0 0 Z " fill="#E6F5F5" transform="translate(601,324)"/>
<path d="M0 0 C5.65 0.6 10.66 2.08 16 4 C16 4.66 16 5.32 16 6 C16.66 6 17.32 6 18 6 C19.47 10.01 18.74 13.88 18.19 18 C18.1 18.71 18.02 19.42 17.94 20.16 C17.47 23.79 16.94 26.86 15 30 C15.52 29.72 16.04 29.45 16.57 29.16 C17.62 28.62 17.62 28.62 18.69 28.06 C19.37 27.7 20.06 27.34 20.76 26.97 C26.87 24.32 30.75 25.49 36.89 27.76 C41.97 29.77 44.39 31.23 47 36 C50.54 44.18 51.84 53.82 48.62 62.31 C48.34 62.94 48.06 63.57 47.77 64.22 C46.85 66.19 46.85 66.19 46.31 69.25 C43.38 77.62 38.57 84.38 31 89 C30.38 89.54 29.76 90.07 29.12 90.62 C22.42 94.97 13.68 94.65 6 94 C3.3 93.29 1.48 92.37 -1 91 C-2.13 90.44 -3.27 89.89 -4.44 89.31 C-5.28 88.88 -6.13 88.45 -7 88 C-7 87.34 -7 86.68 -7 86 C-7.66 86 -8.32 86 -9 86 C-9 86.66 -9 87.32 -9 88 C-9.97 88.47 -10.94 88.95 -11.94 89.44 C-14.8 90.7 -14.8 90.7 -16 92 C-18.79 92.21 -21.52 92.32 -24.31 92.38 C-25.47 92.43 -25.47 92.43 -26.65 92.49 C-28.88 92.52 -30.83 92.49 -33 92 C-35.54 89.48 -35.54 89.48 -37 87 C-39.16 87.97 -40.73 88.68 -42.26 90.52 C-46.08 93.76 -52.21 93 -57 93 C-61.84 92.59 -65.68 92.12 -69.44 88.94 C-69.95 88.3 -70.47 87.66 -71 87 C-72.49 86.5 -72.49 86.5 -74 86 C-74.5 87.49 -74.5 87.49 -75 89 C-81.23 93.63 -88.54 93.43 -96 93 C-102.59 91.99 -105.76 88.82 -110 84 C-114.01 85.38 -116.77 87.28 -120 90 C-123.64 92.43 -125.71 92.16 -130 92 C-130 92.66 -130 93.32 -130 94 C-132.38 94.08 -134.75 94.14 -137.12 94.19 C-137.79 94.21 -138.46 94.24 -139.14 94.26 C-145.56 94.36 -150.13 92.21 -154.88 88 C-158.02 84.79 -158.44 82.51 -158.44 78.06 C-158.33 76.37 -158.19 74.68 -158 73 C-157.34 73 -156.68 73 -156 73 C-155.9 71.7 -155.79 70.4 -155.69 69.06 C-155.22 64.84 -154.19 61.13 -152.76 57.14 C-151.69 54.13 -150.84 51.08 -150 48 C-149.76 47.36 -149.52 46.71 -149.27 46.05 C-148.77 43.92 -148.77 43.92 -150.18 42.04 C-150.74 41.38 -151.3 40.73 -151.88 40.06 C-156.11 34.75 -156.11 34.75 -156 31 C-154.91 29.38 -154.91 29.38 -153 28 C-149.86 27.71 -149.86 27.71 -146.31 27.81 C-145.13 27.84 -143.95 27.87 -142.74 27.89 C-141.83 27.93 -140.93 27.96 -140 28 C-139.73 27.36 -139.46 26.72 -139.19 26.06 C-138 24 -138 24 -135 23 C-134.67 22.01 -134.34 21.02 -134 20 C-132.51 18.68 -132.51 18.68 -130.69 17.44 C-130.09 17.02 -129.5 16.61 -128.89 16.18 C-123.83 13.01 -119.95 12.19 -114 13 C-111 14.38 -111 14.38 -109 17 C-108.31 20.33 -108.07 23.6 -108 27 C-107.34 26.67 -106.68 26.34 -106 26 C-106 26.66 -106 27.32 -106 28 C-105.05 28.29 -104.1 28.58 -103.12 28.88 C-100 30 -100 30 -98 32 C-98.34 35.36 -99.7 37.57 -102 40 C-104.59 40.43 -104.59 40.43 -107.5 40.44 C-111.74 40.56 -111.74 40.56 -115.06 42.94 C-116.13 46.42 -116.84 49.88 -117.46 53.46 C-117.96 55.79 -118.63 57.75 -119.56 59.94 C-121.55 64.83 -121.67 69.76 -122 75 C-118.7 75.33 -115.4 75.66 -112 76 C-112.19 74.58 -112.19 74.58 -112.38 73.12 C-112.4 67.66 -109.21 63.22 -106 59 C-102.8 56.01 -99.42 55.02 -95.25 53.81 C-94.08 53.47 -92.91 53.12 -91.7 52.77 C-90.81 52.52 -89.92 52.26 -89 52 C-89.83 51.05 -90.65 50.1 -91.5 49.12 C-94 46.25 -94 46.25 -94 44 C-94.99 43.5 -94.99 43.5 -96 43 C-96.4 39.51 -96.18 38.25 -94.12 35.31 C-87.17 27.75 -80.2 26.59 -70.23 25.77 C-60.92 25.47 -51.07 27.16 -43 32 C-43 32.66 -43 33.32 -43 34 C-42.13 34.28 -42.13 34.28 -41.25 34.56 C-37.87 36.72 -36.22 39.26 -35 43 C-34.35 49.43 -34.35 55.05 -37 61 C-37.37 62.66 -37.71 64.32 -38 66 C-38.66 66 -39.32 66 -40 66 C-39.5 69.96 -39.5 69.96 -39 74 C-38.34 74 -37.68 74 -37 74 C-35.38 75.5 -35.38 75.5 -34 77 C-32.53 73.09 -32.53 73.09 -32 69 C-31.34 69 -30.68 69 -30 69 C-30.04 67.93 -30.08 66.86 -30.12 65.75 C-30 62.03 -29.6 61.13 -28 58 C-27.36 55.91 -26.76 53.8 -26.19 51.69 C-24.05 44.03 -21.57 36.52 -19 29 C-16.32 21.66 -16.32 21.66 -16 14 C-16.52 13.53 -17.03 13.05 -17.56 12.56 C-19 11 -19 11 -19.12 8 C-18 5 -18 5 -15.12 3.19 C-10.26 1.46 -5.11 1.27 0 1 C0 0.67 0 0.34 0 0 Z M-68 36 C-68 36.99 -68 37.98 -68 39 C-69.11 44.53 -70.43 46.75 -75 50 C-75 50.66 -75 51.32 -75 52 C-78.3 51.67 -81.6 51.34 -85 51 C-85.33 51.66 -85.66 52.32 -86 53 C-83.42 53.56 -80.84 54.1 -78.25 54.62 C-77.52 54.78 -76.79 54.94 -76.04 55.11 C-71.72 55.98 -71.72 55.98 -67.48 55.09 C-66.99 54.73 -66.5 54.37 -66 54 C-66 52.68 -66 51.36 -66 50 C-65.34 49.67 -64.68 49.34 -64 49 C-62.77 47.99 -62.77 47.99 -62.9 45.93 C-62.91 45.11 -62.93 44.29 -62.94 43.44 C-62.95 42.61 -62.96 41.78 -62.96 40.93 C-62.98 40.3 -62.99 39.66 -63 39 C-63.66 39 -64.32 39 -65 39 C-65.33 38.01 -65.66 37.02 -66 36 C-66.66 36 -67.32 36 -68 36 Z M11 43 C7.55 47.08 6.21 51.09 5.62 56.38 C5.07 59.62 4.5 61.12 2.94 63.88 C0.6 68.21 0.39 72.16 1 77 C1.33 77.66 1.66 78.32 2 79 C3.32 79 4.64 79 6 79 C6.33 78.01 6.66 77.02 7 76 C7.64 75.42 8.28 74.85 8.94 74.25 C11.08 71.91 11.77 70.16 12.5 67.11 C12.87 65.54 13.31 63.99 13.79 62.45 C15.7 56.15 16.39 50.58 16 44 C14.35 43.67 12.7 43.34 11 43 Z M-74 65 C-77.18 67.31 -77.18 67.31 -80 70 C-80.5 72.71 -80.5 72.71 -80 75 C-78.28 75.96 -78.28 75.96 -76 76 C-73.06 73.98 -73.06 73.98 -71 71 C-70.9 68.27 -70.9 68.27 -72 66 C-72.66 65.67 -73.32 65.34 -74 65 Z " fill="#E5F5F5" transform="translate(887,691)"/>
<path d="M0 0 C7.76 -0.53 15.41 2.94 21.41 7.66 C24.03 11.08 26.3 14.64 28.47 18.35 C28.86 17.77 29.25 17.2 29.66 16.6 C32.44 13.15 35.8 10.8 39.47 8.35 C40.46 8.35 41.45 8.35 42.47 8.35 C42.47 7.69 42.47 7.03 42.47 6.35 C44.78 5.69 47.09 5.03 49.47 4.35 C49.47 4.02 49.47 3.69 49.47 3.35 C60.47 0.93 70.05 0.3 80.91 3.54 C81.92 3.83 81.92 3.83 82.95 4.13 C87.6 5.65 90.26 7.71 93.47 11.35 C94.38 12.26 95.28 13.17 96.22 14.1 C100.07 19.67 99.65 25.66 99.03 32.16 C98.91 33.47 98.91 33.47 98.79 34.81 C98.5 37.07 98.08 39.16 97.47 41.35 C96.81 41.35 96.15 41.35 95.47 41.35 C95.47 43 95.47 44.65 95.47 46.35 C94.81 46.35 94.15 46.35 93.47 46.35 C93.39 47.08 93.31 47.81 93.23 48.56 C92.28 52.03 90.83 53.52 88.28 56.04 C87.52 56.81 86.77 57.57 85.99 58.36 C83.23 60.54 80.84 61.44 77.47 62.35 C77.47 63.01 77.47 63.67 77.47 64.35 C69.45 68.87 61.52 69.67 52.47 69.54 C51.61 69.54 50.75 69.54 49.87 69.54 C43.61 69.49 43.61 69.49 42.47 68.35 C41.14 68.11 39.8 67.88 38.47 67.66 C33.09 66.52 28.5 64.12 24.47 60.35 C23.72 58.16 23.72 58.16 23.47 56.35 C22.81 56.35 22.15 56.35 21.47 56.35 C20.81 54.7 20.15 53.05 19.47 51.35 C18.48 51.35 17.49 51.35 16.47 51.35 C16.45 52.03 16.43 52.71 16.41 53.41 C15 57.83 12.08 60.53 8.47 63.35 C5.53 64.29 5.53 64.29 3.47 64.35 C3.47 65.01 3.47 65.67 3.47 66.35 C-6.84 69.64 -15.11 69.21 -25.53 67.35 C-25.86 66.36 -26.19 65.37 -26.53 64.35 C-27.58 64.26 -27.58 64.26 -28.66 64.16 C-33.3 62.85 -36.15 59.73 -39.53 56.35 C-44 47.93 -44.26 36.53 -41.48 27.43 C-38.39 19.21 -38.39 19.21 -35.53 16.35 C-35.17 15.85 -34.81 15.35 -34.45 14.84 C-27.59 5.61 -16.9 2.67 -6 0.83 C-4 0.55 -2 0.28 0 0 Z M63.47 14.35 C56.61 27.36 56.61 27.36 52.47 41.35 C52.27 42.44 52.08 43.53 51.88 44.66 C50.44 50.63 50.44 50.63 51.47 56.35 C52.79 56.35 54.11 56.35 55.47 56.35 C57.75 53.54 57.75 53.54 57.47 50.35 C58.46 49.86 58.46 49.86 59.47 49.35 C60.22 47.38 60.86 45.37 61.47 43.35 C61.89 42 62.3 40.65 62.72 39.3 C63.39 37.15 64.05 34.99 64.7 32.83 C66.36 27.46 66.36 27.46 67.47 26.35 C67.57 24.71 67.6 23.06 67.59 21.41 C67.6 20.52 67.6 19.62 67.6 18.7 C67.62 16.33 67.62 16.33 66.47 14.35 C65.48 14.35 64.49 14.35 63.47 14.35 Z M-7.53 19.35 C-9.34 21.73 -9.34 21.73 -10.53 24.35 C-10.88 24.94 -11.23 25.53 -11.59 26.14 C-13.5 30.62 -13.05 35.59 -12.53 40.35 C-10.85 43.96 -9.63 45.63 -6.34 47.79 C0.08 49.07 6.33 47.28 12.47 45.35 C16.23 44.23 16.23 44.23 18.47 45.35 C18.6 44.6 18.73 43.86 18.87 43.09 C19.05 42.1 19.22 41.12 19.41 40.1 C19.58 39.13 19.75 38.15 19.93 37.15 C20.37 34.85 20.87 32.61 21.47 30.35 C18.44 29.08 18.44 29.08 15.03 29.91 C11.36 30.36 10.48 30.18 7.47 28.35 C6.48 28.35 5.49 28.35 4.47 28.35 C2.38 24.5 0.97 20.45 -0.53 16.35 C-3.09 16.35 -5.41 18.12 -7.53 19.35 Z " fill="#E5F5F5" transform="translate(546.53125,715.6484375)"/>
<path d="M0 0 C0.85 0.14 1.69 0.29 2.56 0.44 C4.93 0.82 7.3 1.13 9.69 1.38 C13 2 13 2 14.81 3.25 C16.87 6.28 18.23 8.65 17.6 12.36 C17.4 13.23 17.2 14.1 17 15 C16.86 15.79 16.72 16.58 16.57 17.39 C15.81 21.53 14.95 25.4 13.38 29.31 C12.13 32.66 11.9 34.54 12 38 C11.34 38.66 10.68 39.32 10 40 C9.63 41.32 9.31 42.66 9 44 C8.47 45.27 8.47 45.27 7.94 46.56 C6.82 49.03 6.82 49.03 7 52 C9.15 49.38 10.4 47.36 11 44 C11.66 44 12.32 44 13 44 C14.1 41.94 14.96 40.27 15.31 37.94 C16.36 34.99 18.26 34.31 21 33 C21.99 33 22.98 33 24 33 C24 32.34 24 31.68 24 31 C24.74 30.71 25.49 30.42 26.25 30.12 C28.89 29.1 28.89 29.1 30.86 28 C40.99 23.25 54.62 24.44 65 28 C65.99 28.99 65.99 28.99 67 30 C67.6 30.1 68.2 30.21 68.81 30.31 C72.1 31.35 73.76 33.45 76 36 C77.05 39.16 77.2 41.56 77.25 44.88 C77.28 45.9 77.3 46.93 77.33 47.99 C76.8 52.87 74.67 55.36 71.19 58.69 C68.1 60.93 65.64 61.98 62 63 C61.67 63.33 61.34 63.66 61 64 C59.29 64.09 57.58 64.11 55.87 64.1 C54.32 64.09 54.32 64.09 52.74 64.09 C51.65 64.08 50.56 64.07 49.44 64.06 C47.8 64.06 47.8 64.06 46.13 64.05 C43.42 64.04 40.71 64.02 38 64 C36.72 66.85 36.72 66.85 37.68 69.11 C39.78 72.11 42.18 72.13 45.64 72.75 C48.96 73.1 51.74 72.68 55 72 C56.98 71.64 58.96 71.29 60.94 70.94 C62.63 70.63 64.31 70.31 66 70 C68.19 73.28 68.5 74.2 68 78 C64.18 84.59 59.32 89.7 52 92 C51.22 92.24 50.45 92.49 49.65 92.74 C41.68 94.69 29.51 94.75 22 91 C22 90.34 22 89.68 22 89 C20.95 88.91 20.95 88.91 19.88 88.81 C15.24 87.5 12.38 84.38 9 81 C9 79.68 9 78.36 9 77 C8.7 75.33 8.37 73.66 8 72 C7.34 72 6.68 72 6 72 C5.95 69.94 5.91 67.88 5.88 65.81 C5.85 64.66 5.83 63.52 5.8 62.33 C6 59.08 6.61 56.91 8 54 C7.34 54 6.68 54 6 54 C5.34 57.3 4.68 60.6 4 64 C3.34 64 2.68 64 2 64 C1.87 64.7 1.73 65.4 1.6 66.12 C1.42 67.03 1.24 67.94 1.06 68.88 C0.89 69.78 0.71 70.68 0.54 71.62 C0 74 0 74 -1 76 C-1.46 81.38 -1.07 85.96 1 91 C-0.98 92.98 -4.8 92.3 -7.51 92.39 C-8.27 92.41 -9.03 92.44 -9.81 92.46 C-11.42 92.52 -13.03 92.57 -14.64 92.61 C-17.09 92.69 -19.54 92.78 -21.99 92.87 C-23.56 92.92 -25.13 92.97 -26.7 93.01 C-27.42 93.04 -28.15 93.07 -28.9 93.1 C-33.72 93.22 -37.48 92.52 -42 91 C-42.5 88.52 -42.5 88.52 -43 86 C-39.25 84 -39.25 84 -37 84 C-37 82.68 -37 81.36 -37 80 C-36.34 80 -35.68 80 -35 80 C-35 78.35 -35 76.7 -35 75 C-34.67 75 -34.34 75 -34 75 C-33.88 73.95 -33.75 72.9 -33.62 71.81 C-33.08 68.5 -32.29 66.06 -31 63 C-30.84 62.15 -30.67 61.31 -30.5 60.44 C-29.99 57.97 -29.12 56.23 -28 54 C-27.62 52.34 -27.28 50.68 -27 49 C-26.34 49 -25.68 49 -25 49 C-25 46.69 -25 44.38 -25 42 C-24.34 42 -23.68 42 -23 42 C-23.33 41.01 -23.66 40.02 -24 39 C-23.27 36.21 -22.47 33.54 -21.56 30.81 C-21.32 30.06 -21.08 29.31 -20.83 28.54 C-20.23 26.69 -19.61 24.85 -19 23 C-18.34 23 -17.68 23 -17 23 C-17.11 21.21 -17.24 19.42 -17.38 17.62 C-17.44 16.63 -17.51 15.63 -17.59 14.6 C-17.76 11.84 -17.76 11.84 -20 10 C-20.06 7.56 -20.06 7.56 -19 5 C-13.14 1.35 -6.77 1.32 0 1 C0 0.67 0 0.34 0 0 Z M42 38 C42.33 39.65 42.66 41.3 43 43 C42.34 43 41.68 43 41 43 C40.49 44.27 40 45.54 39.5 46.81 C39.22 47.52 38.94 48.23 38.66 48.96 C37.85 51.12 37.85 51.12 38 54 C39.98 53.67 41.96 53.34 44 53 C44.33 50.69 44.66 48.38 45 46 C45.66 46 46.32 46 47 46 C47.17 43.08 47.17 43.08 47 40 C46.34 39.34 45.68 38.68 45 38 C44.01 38 43.02 38 42 38 Z M4 54 C5 56 5 56 5 56 Z M65 77 C66 79 66 79 66 79 Z " fill="#E5F5F5" transform="translate(969,691)"/>
<path d="M0 0 C0 0.66 0 1.32 0 2 C0.99 1.67 1.98 1.34 3 1 C4.02 2.05 4.02 2.05 5.06 3.12 C7.1 5.19 9.24 7 11.5 8.81 C17.85 14.21 22.29 22.18 23.3 30.5 C23.44 33.19 23.46 35.87 23.44 38.56 C23.46 39.47 23.48 40.38 23.5 41.31 C23.49 47.49 22.41 50.87 19 56 C18.58 57.25 18.58 57.25 18.14 58.52 C16.41 62.27 13.62 64.77 10.69 67.62 C10.12 68.2 9.55 68.77 8.96 69.36 C1.34 76.88 1.34 76.88 -4.81 77.19 C-5.86 77.13 -6.92 77.06 -8 77 C-8 77.66 -8 78.32 -8 79 C-30.13 79.99 -30.13 79.99 -39 74 C-40.49 73.32 -41.99 72.65 -43.5 72 C-46.36 70.59 -46.9 70.19 -48.5 67.25 C-48.66 66.51 -48.83 65.76 -49 65 C-49.66 65 -50.32 65 -51 65 C-55 58.38 -55 58.38 -55 55 C-55.99 54.67 -56.98 54.34 -58 54 C-61.48 27.82 -61.48 27.82 -56 19 C-55.34 19 -54.68 19 -54 19 C-53.9 18.26 -53.79 17.51 -53.68 16.75 C-52.08 10.31 -46.49 6.06 -41.06 2.69 C-27.88 -4.65 -14.06 -6.22 0 0 Z " fill="#E7F7F7" transform="translate(783,263)"/>
<path d="M0 0 C4.44 3.88 7.14 6.92 7.56 12.88 C7.76 15.48 7.98 17.92 8.57 20.47 C10.09 29.33 6.13 39.32 2 47 C-1.31 51.64 -5.24 55.83 -10 59 C-10.99 59 -11.98 59 -13 59 C-13 59.66 -13 60.32 -13 61 C-23.56 65.18 -35.19 65.53 -46 62 C-46.09 62.89 -46.09 62.89 -46.18 63.79 C-46.9 70.53 -46.9 70.53 -47.62 73.88 C-48.21 76.18 -48.21 76.18 -47 79 C-46.01 79.5 -46.01 79.5 -45 80 C-45.19 81.88 -45.19 81.88 -46 84 C-49.96 86.08 -53.38 86.25 -57.8 86.23 C-59.11 86.23 -60.42 86.23 -61.76 86.22 C-62.44 86.22 -63.11 86.21 -63.81 86.21 C-65.86 86.19 -67.91 86.19 -69.96 86.19 C-76.09 86.16 -81.94 85.97 -88 85 C-88.75 83.31 -88.75 83.31 -89 81 C-87.21 78.35 -85.88 76.44 -83 75 C-79.79 68.18 -78.33 60.54 -76.5 53.25 C-75.66 50.04 -74.86 47.8 -73 45 C-72.86 43.97 -72.71 42.94 -72.56 41.88 C-71.9 37.32 -70.53 33.32 -69 29 C-68.29 26.94 -67.58 24.88 -66.88 22.81 C-66.54 21.85 -66.21 20.89 -65.87 19.89 C-64.98 16.92 -64.33 14.09 -64 11 C-65.38 9.29 -65.38 9.29 -67 8 C-67 7.01 -67 6.02 -67 5 C-67.66 4.67 -68.32 4.34 -69 4 C-60.09 -3.42 -50.37 -4.38 -39 -4 C-39 -3.34 -39 -2.68 -39 -2 C-38.05 -1.71 -37.1 -1.42 -36.12 -1.12 C-33 0 -33 0 -31 2 C-28.46 1.91 -28.46 1.91 -26 1 C-25.34 0.01 -24.68 -0.98 -24 -2 C-14.89 -5.53 -7.92 -5.92 0 0 Z M-29 16 C-33.11 19.31 -33.43 21.88 -34 27 C-34.66 27.66 -35.32 28.32 -36 29 C-36.77 31.58 -37.45 34.13 -38.06 36.75 C-38.24 37.45 -38.41 38.16 -38.59 38.88 C-39.56 42.9 -40.38 46.91 -41 51 C-39.35 51 -37.7 51 -36 51 C-35.67 50.01 -35.34 49.02 -35 48 C-34.34 47.55 -33.68 47.09 -33 46.62 C-30.48 44.58 -30.34 43.16 -30 40 C-29.67 40 -29.34 40 -29 40 C-28.5 35.54 -28.5 35.54 -28 31 C-27.34 31 -26.68 31 -26 31 C-25.67 26.71 -25.34 22.42 -25 18 C-26.32 17.34 -27.64 16.68 -29 16 Z " fill="#E6F6F6" transform="translate(476,721)"/>
<path d="M0 0 C0.6 0.34 1.2 0.68 1.82 1.02 C3.5 2 3.5 2 6 4 C6 5.32 6 6.64 6 8 C6.99 8.33 7.98 8.66 9 9 C11.95 16.34 11.49 23.67 9 31 C9.03 31.93 9.05 32.87 9.08 33.83 C8.82 43.78 1.25 51.4 -5.41 58.02 C-8 60 -8 60 -12 60 C-12 60.66 -12 61.32 -12 62 C-22.12 65.97 -30.83 67.28 -41 63 C-41.99 62.67 -42.98 62.34 -44 62 C-43.96 62.89 -43.92 63.77 -43.88 64.69 C-44 68 -44 68 -45.06 70.44 C-46.34 73.93 -45.7 76.38 -45 80 C-44.72 81.7 -44.72 81.7 -44.44 83.44 C-44.29 84.28 -44.15 85.13 -44 86 C-51.22 87.15 -58.27 87.18 -65.56 87.19 C-66.86 87.2 -68.17 87.21 -69.51 87.22 C-71.39 87.23 -71.39 87.23 -73.32 87.23 C-74.46 87.23 -75.59 87.24 -76.77 87.24 C-80.14 86.99 -82.85 86.2 -86 85 C-86.39 82.37 -86.38 80.62 -84.96 78.33 C-83.62 76.69 -83.62 76.69 -81 74 C-80.34 74 -79.68 74 -79 74 C-79 71.69 -79 69.38 -79 67 C-78.34 67 -77.68 67 -77 67 C-76.9 65.91 -76.79 64.81 -76.69 63.69 C-75.76 56.17 -73.52 48.76 -70.69 41.75 C-68.25 35.34 -66.7 28.63 -65 22 C-64.34 22 -63.68 22 -63 22 C-63.02 20.91 -63.04 19.81 -63.06 18.69 C-63 15 -63 15 -62 12 C-63.02 10.58 -63.02 10.58 -64.06 9.12 C-66 6 -66 6 -65.51 3.41 C-64 1 -64 1 -61.21 -0.11 C-60.09 -0.32 -58.97 -0.53 -57.81 -0.75 C-56.64 -0.98 -55.47 -1.2 -54.27 -1.44 C-53.19 -1.62 -52.11 -1.81 -51 -2 C-49.91 -2.22 -49.91 -2.22 -48.8 -2.44 C-42.25 -3.62 -36.75 -2.05 -31 1 C-30.06 3.19 -30.06 3.19 -30 5 C-29.01 5 -28.02 5 -27 5 C-26.79 4.4 -26.59 3.8 -26.38 3.19 C-23.54 -1.32 -18.55 -2.27 -13.62 -3.44 C-7.87 -4.38 -4.73 -3.19 0 0 Z M-27 17 C-30.32 19.21 -30.51 19.75 -31.56 23.38 C-32.26 25.74 -32.94 27.89 -34.06 30.09 C-35.19 32.13 -35.19 32.13 -35.44 35.19 C-36.01 39.05 -37.08 42.27 -38.48 45.89 C-39.07 48.3 -38.79 49.67 -38 52 C-35.83 51.49 -34 51 -32 50 C-31.86 49.42 -31.71 48.85 -31.56 48.25 C-31 46 -31 46 -29.56 43.62 C-27.89 40.82 -26.94 38.11 -26 35 C-25.67 35 -25.34 35 -25 35 C-25 31.7 -25 28.4 -25 25 C-24.34 25 -23.68 25 -23 25 C-23.33 22.69 -23.66 20.38 -24 18 C-24.99 17.67 -25.98 17.34 -27 17 Z " fill="#E6F6F6" transform="translate(393,720)"/>
<path d="M0 0 C0 0.66 0 1.32 0 2 C0.99 2.33 1.98 2.66 3 3 C3 4.32 3 5.64 3 7 C3.66 7 4.32 7 5 7 C9.32 15.64 3.82 30.26 1.06 38.84 C0.71 39.89 0.36 40.93 0 42 C-0.66 42 -1.32 42 -2 42 C-1.96 43.18 -1.92 44.35 -1.88 45.56 C-1.87 50.72 -3.38 55.14 -5 60 C-5.66 60 -6.32 60 -7 60 C-6.86 61.81 -6.71 63.63 -6.56 65.44 C-6.48 66.45 -6.4 67.46 -6.32 68.5 C-6.27 70.94 -6.27 70.94 -5 72 C-4.96 73.67 -4.96 75.33 -5 77 C-8.72 79.4 -12.38 79.29 -16.65 79.27 C-17.39 79.27 -18.13 79.27 -18.89 79.27 C-20.44 79.27 -22 79.27 -23.55 79.26 C-25.93 79.25 -28.3 79.26 -30.67 79.27 C-32.18 79.27 -33.7 79.27 -35.21 79.27 C-35.92 79.27 -36.63 79.27 -37.35 79.28 C-41.34 79.24 -44.41 78.75 -48 77 C-47.68 75.33 -47.34 73.67 -47 72 C-46.9 71.28 -46.79 70.56 -46.69 69.81 C-46 68 -46 68 -44.06 67.06 C-41.74 66.13 -41.74 66.13 -40.75 63.38 C-40.5 62.59 -40.25 61.81 -40 61 C-39.34 61 -38.68 61 -38 61 C-38 59.02 -38 57.04 -38 55 C-46.42 55.5 -46.42 55.5 -55 56 C-57.81 62.97 -57.81 62.97 -57.06 70.06 C-56.71 70.7 -56.36 71.34 -56 72 C-55.81 74.69 -55.81 74.69 -56 77 C-57 78 -57 78 -59.87 78.11 C-61.12 78.11 -62.37 78.1 -63.66 78.1 C-64.66 78.1 -64.66 78.1 -65.67 78.09 C-67.8 78.09 -69.93 78.08 -72.06 78.06 C-73.5 78.06 -74.94 78.05 -76.38 78.05 C-79.92 78.04 -83.46 78.02 -87 78 C-87.99 75.03 -87.99 75.03 -89 72 C-85.9 69.28 -83.05 66.95 -79.38 65.06 C-75.6 62.76 -74.06 60.88 -72 57 C-71.35 54.43 -71.35 54.43 -71 52 C-69.89 49.41 -69.02 48.02 -67 46 C-66.31 44.44 -65.67 42.85 -65.06 41.25 C-63.56 37.38 -61.89 33.7 -60 30 C-59.31 28.34 -58.64 26.68 -58 25 C-57.34 25 -56.68 25 -56 25 C-55.9 24.28 -55.79 23.56 -55.69 22.81 C-54.93 19.73 -53.68 17.68 -52 15 C-51.5 13.73 -51.5 13.73 -51 12.44 C-49.97 9.92 -48.65 8.15 -47 6 C-46.67 5.01 -46.34 4.02 -46 3 C-45.34 3 -44.68 3 -44 3 C-43.67 2.34 -43.34 1.68 -43 1 C-42.01 1 -41.02 1 -40 1 C-40 0.34 -40 -0.32 -40 -1 C-29.09 -11.02 -11.25 -6.99 0 0 Z M-35 14 C-38.04 17.67 -39.67 21.47 -41.2 25.91 C-42.32 28.83 -43.8 31.51 -45.33 34.24 C-46.29 36.19 -46.29 36.19 -45 39 C-42.22 39.93 -40.32 40.19 -37.44 40.25 C-36.65 40.28 -35.87 40.3 -35.06 40.33 C-34.38 40.22 -33.7 40.11 -33 40 C-30.29 35.93 -29.44 31.77 -28.25 27.06 C-28 26.16 -27.76 25.25 -27.5 24.31 C-27.17 23 -27.17 23 -26.83 21.66 C-26.62 20.86 -26.41 20.06 -26.2 19.24 C-25.96 16.55 -26.6 15.27 -28 13 C-30.62 13 -32.48 13.16 -35 14 Z " fill="#E7F6F6" transform="translate(319,705)"/>
<path d="M0 0 C1.31 2 1.31 2 2 4 C2.66 4.66 3.32 5.32 4 6 C4.33 5.34 4.66 4.68 5 4 C5.99 4 6.98 4 8 4 C8.33 3.01 8.66 2.02 9 1 C12.19 -1.13 14.14 -1.57 17.88 -2.19 C18.9 -2.37 19.93 -2.55 20.99 -2.73 C25.42 -3.13 29.1 -2.1 33.25 -0.62 C33.94 -0.39 34.62 -0.16 35.33 0.09 C37 1 37 1 38 4 C38.5 4.5 38.99 4.99 39.5 5.5 C41.47 7.47 41.95 9.26 42.13 12.02 C42.12 16.78 41.8 21.3 41 26 C39.51 26.5 39.51 26.5 38 27 C38.06 28.13 38.12 29.27 38.19 30.44 C38.21 34.68 37.16 38.08 35.66 42.02 C34.84 44.13 34.84 44.13 35 47 C36.65 47.33 38.3 47.66 40 48 C40.06 51.99 40.07 55.59 37.59 58.86 C31.99 63.83 26.46 65.29 19 65.31 C17.82 65.33 16.65 65.35 15.44 65.36 C9.47 64.73 5.24 61.94 1.2 57.68 C-0.79 54.89 -0.94 52.36 -1 49 C-0.67 47.33 -0.33 45.67 0 44 C-0.66 43.34 -1.32 42.68 -2 42 C-1.01 41.34 -0.02 40.68 1 40 C1.36 38.34 1.7 36.67 2 35 C2.66 34.67 3.32 34.34 4 34 C4.66 30.97 4.66 30.97 5 28 C5.33 28 5.66 28 6 28 C6.33 26.35 6.66 24.7 7 23 C7.66 23 8.32 23 9 23 C8.5 21.02 8.5 21.02 8 19 C5.59 19.11 5.59 19.11 3 20 C1.23 22.29 1.23 22.29 0 25 C-0.53 25.9 -0.53 25.9 -1.06 26.81 C-2.16 29.37 -2.8 31.96 -3.43 34.66 C-3.84 36.35 -4.3 38.02 -4.79 39.68 C-6.46 45.32 -7.53 50.12 -7 56 C-6.34 56.66 -5.68 57.32 -5 58 C-5.37 60.93 -5.86 61.86 -8 64 C-10.92 64.14 -13.74 64.16 -16.66 64.08 C-17.51 64.06 -18.37 64.05 -19.26 64.03 C-21.07 63.99 -22.89 63.94 -24.7 63.89 C-27.49 63.81 -30.27 63.76 -33.06 63.72 C-34.82 63.67 -36.58 63.63 -38.34 63.58 C-39.6 63.56 -39.6 63.56 -40.88 63.54 C-43.22 63.46 -43.22 63.46 -47 63 C-49 60 -49 60 -48.94 58 C-48 56 -48 56 -45.56 54.75 C-42.65 52.76 -42.52 52.21 -41.75 48.94 C-41.56 47.9 -41.56 47.9 -41.36 46.84 C-41 45 -41 45 -40 43 C-39.64 41.34 -39.31 39.67 -39 38 C-38.34 38 -37.68 38 -37 38 C-36.86 36.91 -36.71 35.81 -36.56 34.69 C-36 31 -36 31 -35 28 C-32.22 18.83 -30.77 12.82 -35 4 C-24.87 -3.96 -11.84 -4.69 0 0 Z " fill="#E6F5F5" transform="translate(686,720)"/>
<path d="M0 0 C5.06 2.23 9.55 4.65 13.12 8.94 C13.12 9.6 13.12 10.26 13.12 10.94 C13.68 11 14.24 11.06 14.81 11.12 C18.07 12.27 19.77 14.46 22.12 16.94 C22.78 17.27 23.44 17.6 24.12 17.94 C24.12 18.6 24.12 19.26 24.12 19.94 C25.61 20.43 25.61 20.43 27.12 20.94 C29.24 23.32 30.97 25.67 32.56 28.44 C34.08 31.1 34.08 31.1 36.69 33.38 C39.34 36.16 40.18 38.25 41.12 41.94 C41.78 41.94 42.44 41.94 43.12 41.94 C43.62 44.41 43.62 44.41 44.12 46.94 C44.78 46.94 45.44 46.94 46.12 46.94 C48.16 50.67 49.12 52.61 49.12 56.94 C49.78 56.94 50.44 56.94 51.12 56.94 C52.09 59.12 53.05 61.31 54 63.5 C54.27 64.11 54.54 64.72 54.82 65.35 C56.61 69.47 57.93 73.59 59.12 77.94 C59.63 79.22 60.14 80.49 60.69 81.75 C62.49 86.37 62.83 91.02 63.12 95.94 C62.13 95.94 61.14 95.94 60.12 95.94 C58.72 93.99 57.4 91.98 56.12 89.94 C53.05 85.77 49.47 82.27 45.73 78.71 C44.12 76.94 44.12 76.94 44.12 74.94 C42.64 74.44 42.64 74.44 41.12 73.94 C41.12 73.28 41.12 72.62 41.12 71.94 C40.47 71.94 39.81 71.94 39.12 71.94 C39.12 71.28 39.12 70.62 39.12 69.94 C37.64 69.44 37.64 69.44 36.12 68.94 C36.12 68.28 36.12 67.62 36.12 66.94 C35.47 66.94 34.81 66.94 34.12 66.94 C34.12 66.28 34.12 65.62 34.12 64.94 C33.54 64.69 32.96 64.44 32.36 64.18 C29.83 62.77 28.28 61.18 26.31 59.06 C22.79 55.44 19.59 53.26 15.12 50.94 C14.13 50.26 13.14 49.58 12.12 48.88 C8.86 46.77 5.71 45.43 2.12 43.94 C1.13 43.28 0.14 42.62 -0.88 41.94 C-2.92 41.28 -2.92 41.28 -5.06 40.81 C-6.95 40.38 -6.95 40.38 -8.88 39.94 C-8.88 39.28 -8.88 38.62 -8.88 37.94 C-9.9 37.75 -9.9 37.75 -10.94 37.56 C-17.76 36.11 -24.62 34.07 -30.88 30.94 C-33.89 30.66 -36.91 30.49 -39.93 30.32 C-42.73 29.96 -44.48 29.37 -46.88 27.94 C-46.88 27.28 -46.88 26.62 -46.88 25.94 C-46.21 25.94 -45.56 25.94 -44.88 25.94 C-44.88 25.28 -44.88 24.62 -44.88 23.94 C-44.14 23.54 -43.4 23.14 -42.64 22.73 C-41.67 22.2 -40.69 21.67 -39.69 21.12 C-38.72 20.6 -37.76 20.08 -36.77 19.54 C-34.97 18.54 -33.18 17.52 -31.41 16.46 C-28.47 14.69 -25.46 13.06 -22.44 11.44 C-20.8 10.56 -20.8 10.56 -19.13 9.66 C-18.06 9.09 -16.98 8.52 -15.88 7.94 C-14.81 7.37 -13.75 6.8 -12.65 6.22 C-9.88 4.94 -9.88 4.94 -6.88 4.94 C-6.88 4.28 -6.88 3.62 -6.88 2.94 C-2.83 -0.09 -2.83 -0.09 0 0 Z " fill="#E7F7F7" transform="translate(487.875,463.0625)"/>
<path d="M0 0 C6.17 1.52 11.98 3.25 17.74 5.96 C20.98 7.45 24.31 8.7 27.64 9.97 C30.26 11.11 32.57 12.49 35 14 C36.05 14.63 37.11 15.26 38.19 15.9 C39.3 16.57 40.42 17.25 41.56 17.94 C43.24 18.94 43.24 18.94 44.94 19.96 C47.68 21.79 49.72 23.65 52 26 C54.63 27.25 54.63 27.25 57 28 C57 28.66 57 29.32 57 30 C58.32 30.66 59.64 31.32 61 32 C61 32.66 61 33.32 61 34 C61.56 34.24 62.13 34.48 62.71 34.73 C65.48 36.27 67.39 38.13 69.62 40.38 C70.79 41.53 70.79 41.53 71.98 42.71 C73.82 44.79 74.87 46.49 76 49 C76.66 49.99 77.32 50.98 78 52 C73.45 50.84 69.99 49.41 66 47 C62.7 45.59 59.36 44.28 56 43 C56 42.34 56 41.68 56 41 C54.73 41.34 54.73 41.34 53.44 41.69 C49.11 42.08 46.91 40.82 43 39 C23.3 33.4 0.23 35.38 -20 37 C-21.21 33.38 -20.54 32.36 -19 29 C-18.34 29 -17.68 29 -17 29 C-17 28.01 -17 27.02 -17 26 C-16.34 26 -15.68 26 -15 26 C-14.67 24.35 -14.34 22.7 -14 21 C-13.34 21 -12.68 21 -12 21 C-11.88 20.24 -11.75 19.47 -11.62 18.69 C-11 16 -11 16 -9 13 C-8.34 13 -7.68 13 -7 13 C-6.89 12.43 -6.77 11.85 -6.66 11.26 C-5.94 8.78 -4.9 6.98 -3.5 4.81 C-3.06 4.12 -2.61 3.42 -2.16 2.71 C-1 1 -1 1 0 0 Z " fill="#E6F6F6" transform="translate(457,509)"/>
<path d="M0 0 C1.03 0.21 2.06 0.41 3.12 0.62 C5.87 0.76 8.01 0.65 10.69 0 C13.12 -0.38 13.12 -0.38 17.12 1.62 C17.12 5.25 17.12 8.88 17.12 12.62 C14.49 12.62 11.85 12.62 9.12 12.62 C10.12 14.94 11.11 17.25 12.12 19.62 C16.75 19.62 21.37 19.62 26.12 19.62 C26.12 20.29 26.12 20.94 26.12 21.62 C26.96 21.75 26.96 21.75 27.81 21.88 C31.11 22.94 32.71 24.09 35.12 26.62 C37.08 30.59 38.45 34.47 37.78 38.91 C36.34 43.12 34.31 45.54 31.12 48.62 C30.33 51.27 30.33 51.27 30.12 53.62 C30.78 53.62 31.45 53.62 32.12 53.62 C30.76 56.79 30.14 57.62 27.12 59.62 C25.12 59.5 25.12 59.5 23.12 58.62 C21.38 56.56 21.38 56.56 20.12 54.62 C19.13 55.12 19.13 55.12 18.12 55.62 C15.41 55.7 12.72 55.72 10 55.69 C9.25 55.68 8.49 55.68 7.71 55.67 C5.85 55.66 3.99 55.64 2.12 55.62 C2.12 52 2.12 48.37 2.12 44.62 C5.1 44.13 5.1 44.13 8.12 43.62 C8.12 44.28 8.12 44.94 8.12 45.62 C9.12 44.97 10.11 44.31 11.12 43.62 C12.45 43.62 13.76 43.62 15.12 43.62 C13.01 38.92 13.01 38.92 9.12 35.62 C6.69 35.48 4.25 35.4 1.81 35.38 C-6.46 35.05 -6.46 35.05 -9.69 31.94 C-13.14 26.72 -14.45 22.73 -13.49 16.57 C-12.46 13.33 -10.08 11.15 -7.88 8.62 C-7.18 6.3 -6.51 3.97 -5.88 1.62 C-2.88 -0.38 -2.88 -0.38 0 0 Z M-0.88 17.62 C-0.22 18.29 0.45 18.94 1.12 19.62 C1.46 18.96 1.78 18.31 2.12 17.62 C1.13 17.62 0.14 17.62 -0.88 17.62 Z M-1.88 18.62 C-0.88 20.62 -0.88 20.62 -0.88 20.62 Z M1.12 19.62 C0.79 20.62 0.47 21.61 0.12 22.62 C0.78 22.62 1.45 22.62 2.12 22.62 C1.79 21.63 1.47 20.64 1.12 19.62 Z M21.12 32.62 C20.79 33.62 20.47 34.61 20.12 35.62 C22.6 37.11 22.6 37.11 25.12 38.62 C25.12 36.64 25.12 34.67 25.12 32.62 C23.8 32.62 22.49 32.62 21.12 32.62 Z " fill="#E4F4F4" transform="translate(580.875,440.375)"/>
<path d="M0 0 C0 0.66 0 1.32 0 2 C1.32 1.34 2.64 0.68 4 0 C4.99 0.66 5.98 1.32 7 2 C7.33 4.06 7.33 4.06 7.25 6.44 C7.23 7.22 7.22 8 7.2 8.81 C7 11 7 11 6 14 C5.53 17.32 5.11 20.64 4.7 23.97 C3.98 27.07 3.62 28.26 1 30 C-2.69 30.19 -2.69 30.19 -6 30 C-6 30.66 -6 31.32 -6 32 C-8.48 31.01 -8.48 31.01 -11 30 C-11 28.68 -11 27.36 -11 26 C-11.66 25.67 -12.32 25.34 -13 25 C-11.02 24.67 -9.04 24.34 -7 24 C-7.93 23.71 -8.86 23.42 -9.81 23.12 C-14.43 20.05 -14.88 16.24 -16 11 C-15.67 11 -15.34 11 -15 11 C-14.79 10.11 -14.59 9.23 -14.38 8.31 C-11.52 1.44 -7.25 -0.72 0 0 Z M-6 7 C-6 10.3 -6 13.6 -6 17 C-5.01 17 -4.02 17 -3 17 C-0.71 13.56 -0.82 12.01 -1 8 C-2.65 7.67 -4.3 7.34 -6 7 Z " fill="#E3F2F2" transform="translate(735,845)"/>
<path d="M0 0 C1.9 -0.05 3.79 -0.09 5.69 -0.12 C6.74 -0.15 7.8 -0.17 8.89 -0.2 C12.02 0 14.18 0.67 17 2 C17 3.98 17 5.96 17 8 C12.34 8.84 8.63 9.02 4 8 C4.33 8.99 4.66 9.98 5 11 C8.51 12.23 8.51 12.23 12 13 C12.22 15.74 12.35 17.44 10.88 19.81 C8.22 21.49 6.07 21.2 3 21 C2.92 22.28 2.83 23.56 2.75 24.88 C2.27 28.78 2.27 28.78 0.12 30.56 C-2 31 -2 31 -5 30 C-6.22 27.55 -6.13 25.92 -6.12 23.19 C-6.13 22.34 -6.13 21.48 -6.13 20.61 C-6 17.97 -5.54 15.58 -5 13 C-4.79 11.06 -4.6 9.13 -4.44 7.19 C-4.35 6.21 -4.27 5.24 -4.18 4.23 C-4.12 3.49 -4.06 2.76 -4 2 C-2.68 2 -1.36 2 0 2 C0 1.34 0 0.68 0 0 Z " fill="#DFEFEF" transform="translate(464,837)"/>
<path d="M0 0 C-0.67 6.67 -1.33 13.33 -2 20 C-5.83 20.93 -9.2 21.07 -13.12 20.81 C-14.16 20.76 -15.19 20.7 -16.26 20.64 C-19 20 -19 20 -20.81 18.15 C-22.84 14.47 -23.42 11.02 -22.56 6.88 C-21.47 3.49 -20.46 1.42 -17.81 -1 C-11.55 -3.23 -6.09 -2.03 0 0 Z M-13 5 C-14.6 8.12 -15.19 9.39 -14.12 12.81 C-13.75 13.53 -13.38 14.26 -13 15 C-12.34 15 -11.68 15 -11 15 C-9.86 12.71 -9.9 11.41 -9.94 8.88 C-9.96 7.6 -9.98 6.32 -10 5 C-10.99 5 -11.98 5 -13 5 Z " fill="#E2F2F2" transform="translate(824,847)"/>
<path d="M0 0 C1.31 4.64 0.73 8.64 0.06 13.31 C-0.46 17.12 -0.46 17.12 -1 21 C-6.61 21 -12.22 21 -18 21 C-20.89 15.21 -22.04 12.19 -21 6 C-18.33 1.42 -18.33 1.42 -15.14 0.41 C-12.93 -0.01 -10.74 -0.36 -8.5 -0.62 C-7.75 -0.72 -6.99 -0.82 -6.22 -0.91 C-3.93 -1 -2.18 -0.66 0 0 Z M-11 7 C-11.99 8.49 -11.99 8.49 -13 10 C-12.67 10.66 -12.34 11.32 -12 12 C-12.44 14.12 -12.44 14.12 -13 16 C-10.12 15.12 -10.12 15.12 -8 14 C-8 11.69 -8 9.38 -8 7 C-8.99 7 -9.98 7 -11 7 Z M-14 10 C-13 12 -13 12 -13 12 Z " fill="#E1F1F1" transform="translate(555,846)"/>
<path d="M0 0 C1.16 0.13 2.32 0.26 3.52 0.39 C4.4 0.51 5.28 0.63 6.19 0.75 C6.22 3.87 6.23 7 6.25 10.12 C6.26 11.01 6.27 11.9 6.28 12.82 C6.28 14.1 6.28 14.1 6.29 15.4 C6.29 16.58 6.29 16.58 6.3 17.78 C6.19 19.75 6.19 19.75 5.19 21.75 C3.26 22.13 3.26 22.13 0.88 22.31 C-2.13 22.56 -4.9 22.94 -7.81 23.75 C-7.81 23.09 -7.81 22.43 -7.81 21.75 C-9.46 21.42 -11.11 21.09 -12.81 20.75 C-14.62 15.13 -15.18 11.13 -13.03 5.57 C-9.47 0.24 -6.2 -0.75 0 0 Z M-4.81 7.75 C-6.18 10 -6.85 11.28 -6.62 13.94 C-6.36 14.54 -6.09 15.13 -5.81 15.75 C-4.82 16.08 -3.83 16.41 -2.81 16.75 C-2.81 15.76 -2.81 14.77 -2.81 13.75 C-2.15 13.75 -1.49 13.75 -0.81 13.75 C-0.81 12.1 -0.81 10.45 -0.81 8.75 C-2.13 8.42 -3.45 8.09 -4.81 7.75 Z " fill="#E2F2F2" transform="translate(632.8125,845.25)"/>
<path d="M0 0 C1.62 1.06 1.62 1.06 2.62 3.06 C2.69 4.6 2.71 6.15 2.69 7.69 C2.68 8.5 2.67 9.32 2.66 10.16 C2.65 10.79 2.64 11.42 2.62 12.06 C1.63 12.39 0.64 12.72 -0.38 13.06 C-0.38 14.05 -0.38 15.04 -0.38 16.06 C0.28 16.06 0.95 16.06 1.62 16.06 C0.65 18.58 0.14 19.81 -2.33 21.03 C-6.64 22.03 -8.66 22.39 -12.81 20.5 C-16.11 17.36 -17.1 15.14 -17.69 10.69 C-17.13 5.96 -15.71 2.25 -12.12 -0.94 C-7.78 -2.52 -4.22 -1.67 0 0 Z M-8.38 13.06 C-8.38 13.72 -8.38 14.38 -8.38 15.06 C-7.05 14.73 -5.74 14.4 -4.38 14.06 C-5.7 13.73 -7.01 13.4 -8.38 13.06 Z " fill="#DCECEC" transform="translate(708.375,846.9375)"/>
<path d="M0 0 C2.03 0.94 4.04 1.93 6 3 C6 4.65 6 6.3 6 8 C5.01 8.33 4.02 8.66 3 9 C3 9.99 3 10.98 3 12 C3.66 12 4.32 12 5 12 C5.84 14.36 6.12 15.62 5.34 18.03 C3.52 20.7 1.96 20.96 -1.12 21.75 C-2.04 21.99 -2.95 22.23 -3.88 22.48 C-4.58 22.65 -5.28 22.82 -6 23 C-6 22.34 -6 21.68 -6 21 C-7.32 21.33 -8.64 21.66 -10 22 C-11.32 20.35 -12.64 18.7 -14 17 C-13.66 16.44 -13.33 15.89 -12.98 15.31 C-11.82 12.59 -11.98 10.93 -12.25 8 C-12.3 5.36 -12.3 5.36 -12 3 C-8.08 -1.02 -5.3 -1.65 0 0 Z " fill="#E0F0F0" transform="translate(677,846)"/>
<path d="M0 0 C3.14 5.12 3.27 8.63 2.69 14.38 C2.6 15.48 2.6 15.48 2.5 16.61 C2.35 18.41 2.18 20.2 2 22 C-0.88 22.12 -0.88 22.12 -4 22 C-4.66 21.34 -5.32 20.68 -6 20 C-5.98 17.18 -5.98 17.18 -5.62 13.88 C-5.51 12.78 -5.4 11.68 -5.29 10.55 C-5.15 9.29 -5.15 9.29 -5 8 C-5.66 8 -6.32 8 -7 8 C-7.99 12.62 -8.98 17.24 -10 22 C-12.64 22 -15.28 22 -18 22 C-17.69 18.69 -17.38 15.37 -17.06 12.06 C-16.98 11.12 -16.89 10.17 -16.8 9.2 C-16.71 8.3 -16.62 7.4 -16.54 6.47 C-16.46 5.64 -16.38 4.81 -16.3 3.95 C-16 2 -16 2 -15 1 C-10.03 0.15 -5.03 -0.13 0 0 Z " fill="#DBEAEA" transform="translate(581,845)"/>
<path d="M0 0 C0 0.66 0 1.32 0 2 C0.99 2.33 1.98 2.66 3 3 C2.67 8.94 2.34 14.88 2 21 C0.02 21 -1.96 21 -4 21 C-5.78 17.94 -6.23 15.78 -6.12 12.25 C-6.11 11.45 -6.09 10.65 -6.07 9.83 C-6.05 9.22 -6.02 8.62 -6 8 C-8.88 12.31 -10 15.81 -10 21 C-11.98 21.33 -13.96 21.66 -16 22 C-17.12 19.19 -17.12 19.19 -18 16 C-17.01 14.51 -17.01 14.51 -16 13 C-16.66 12.67 -17.32 12.34 -18 12 C-17.34 12 -16.68 12 -16 12 C-16.01 11.22 -16.02 10.44 -16.04 9.63 C-16.04 8.62 -16.05 7.61 -16.06 6.56 C-16.07 5.55 -16.09 4.54 -16.1 3.5 C-16 1 -16 1 -15 0 C-9.85 -0.98 -5.15 -1.19 0 0 Z " fill="#DCEBEB" transform="translate(522,846)"/>
<path d="M0 0 C0.6 0.23 1.2 0.45 1.81 0.69 C3.11 7.04 2.89 13.29 1.81 19.69 C1.15 20.68 0.49 21.67 -0.19 22.69 C-2.97 22.85 -5.43 22.83 -8.19 22.62 C-8.92 22.6 -9.66 22.57 -10.42 22.54 C-12.56 22.4 -12.56 22.4 -16.19 21.69 C-19.03 18.23 -18.47 13.96 -18.19 9.69 C-17.72 6.29 -16.85 3.69 -15.19 0.69 C-13.87 0.69 -12.55 0.69 -11.19 0.69 C-11.19 1.35 -11.19 2.01 -11.19 2.69 C-10.53 2.69 -9.87 2.69 -9.19 2.69 C-9.26 3.28 -9.33 3.87 -9.41 4.48 C-9.89 8.57 -10.32 12.56 -10.19 16.69 C-9.2 16.69 -8.21 16.69 -7.19 16.69 C-7.08 15.71 -6.97 14.74 -6.86 13.73 C-6.62 11.82 -6.62 11.82 -6.38 9.88 C-6.22 8.61 -6.07 7.35 -5.92 6.04 C-5.09 2.26 -4.3 -0.61 0 0 Z " fill="#E2F2F2" transform="translate(768.1875,845.3125)"/>
<path d="M0 0 C0 1.98 0 3.96 0 6 C-0.99 6.33 -1.98 6.66 -3 7 C-3 7.66 -3 8.32 -3 9 C-3.66 9 -4.32 9 -5 9 C-5 9.66 -5 10.32 -5 11 C-5.99 11.5 -5.99 11.5 -7 12 C-7.33 12.99 -7.66 13.98 -8 15 C-7.01 14.67 -6.02 14.34 -5 14 C-4.01 14.66 -3.02 15.32 -2 16 C-2.99 18.48 -2.99 18.48 -4 21 C-9.28 20.67 -14.56 20.34 -20 20 C-20 13.22 -20 13.22 -17.62 10.62 C-16.76 9.76 -15.89 8.89 -15 8 C-14.34 8 -13.68 8 -13 8 C-14.26 5.49 -15.5 5.13 -18 4 C-18 2.35 -18 0.7 -18 -1 C-11.46 -1.88 -6.23 -2.35 0 0 Z " fill="#E6F6F6" transform="translate(612,847)"/>
<path d="M0 0 C0.33 0.66 0.66 1.32 1 2 C1.66 2.14 2.32 2.29 3 2.44 C3.66 2.62 4.32 2.81 5 3 C5.33 3.99 5.66 4.98 6 6 C5.67 6.66 5.34 7.32 5 8 C4.34 8 3.68 8 3 8 C3.18 8.8 3.37 9.59 3.56 10.41 C4.11 14.89 3.63 18.92 3.06 23.38 C2.96 24.21 2.86 25.04 2.76 25.89 C2.51 27.93 2.26 29.97 2 32 C-2.45 31.01 -2.45 31.01 -7 30 C-7 29.34 -7 28.68 -7 28 C-6.34 28 -5.68 28 -5 28 C-5.33 27.01 -5.66 26.02 -6 25 C-5.99 21.13 -5.62 17.29 -5.31 13.44 C-5.25 12.37 -5.18 11.3 -5.11 10.21 C-5.03 9.19 -4.95 8.17 -4.86 7.12 C-4.79 6.19 -4.72 5.25 -4.65 4.29 C-4 2 -4 2 -1.95 0.68 C-1.3 0.46 -0.66 0.23 0 0 Z M-3 9 C-2 11 -2 11 -2 11 Z " fill="#DAE9E9" transform="translate(493,836)"/>
<path d="M0 0 C1.15 0.1 1.15 0.1 2.32 0.2 C4.31 0.75 4.31 0.75 6.31 3.75 C3.69 7.62 3.69 7.62 0.31 8.75 C-0.72 10.06 -1.72 11.39 -2.69 12.75 C-3.02 12.75 -3.35 12.75 -3.69 12.75 C-4.02 15.39 -4.35 18.03 -4.69 20.75 C-4.03 21.08 -3.37 21.41 -2.69 21.75 C-6.65 22.25 -6.65 22.25 -10.69 22.75 C-11.69 18 -11.69 18 -11.69 15.75 C-11.03 15.75 -10.37 15.75 -9.69 15.75 C-10.02 14.76 -10.35 13.77 -10.69 12.75 C-10.6 10.68 -10.45 8.62 -10.25 6.56 C-10.15 5.48 -10.05 4.39 -9.94 3.27 C-9.86 2.44 -9.77 1.61 -9.69 0.75 C-6.32 -0.04 -3.45 -0.35 0 0 Z " fill="#E1F0F0" transform="translate(789.6875,845.25)"/>
<path d="M0 0 C3.3 0 6.6 0 10 0 C10 0.33 10 0.66 10 1 C6.7 1 3.4 1 0 1 C0 0.67 0 0.34 0 0 Z " fill="#000100" transform="translate(807,868)"/>
<path d="M0 0 C2.97 0 5.94 0 9 0 C9 0.33 9 0.66 9 1 C6.03 1 3.06 1 0 1 C0 0.67 0 0.34 0 0 Z " fill="#000100" transform="translate(577,476)"/>
<path d="M0 0 C0.33 0 0.66 0 1 0 C1 2.64 1 5.28 1 8 C0.67 8 0.34 8 0 8 C0 5.36 0 2.72 0 0 Z " fill="#000001" transform="translate(599,443)"/>
<path d="M0 0 C2.31 0 4.62 0 7 0 C7 0.33 7 0.66 7 1 C4.69 1 2.38 1 0 1 C0 0.67 0 0.34 0 0 Z " fill="#000100" transform="translate(594,868)"/>
<path d="M0 0 C0.33 0 0.66 0 1 0 C1 2.31 1 4.62 1 7 C0.67 7 0.34 7 0 7 C0 4.69 0 2.38 0 0 Z " fill="#000000" transform="translate(525,851)"/>
<path d="M0 0 C0.33 0 0.66 0 1 0 C1 2.31 1 4.62 1 7 C0.67 7 0.34 7 0 7 C0 4.69 0 2.38 0 0 Z " fill="#000100" transform="translate(640,848)"/>
<path d="M0 0 C2.31 0 4.62 0 7 0 C7 0.33 7 0.66 7 1 C4.69 1 2.38 1 0 1 C0 0.67 0 0.34 0 0 Z " fill="#000100" transform="translate(774,732)"/>
<path d="M0 0 C1.98 0 3.96 0 6 0 C6 0.33 6 0.66 6 1 C4.02 1 2.04 1 0 1 C0 0.67 0 0.34 0 0 Z " fill="#000100" transform="translate(754,868)"/>
<path d="M0 0 C1.98 0 3.96 0 6 0 C6 0.33 6 0.66 6 1 C4.02 1 2.04 1 0 1 C0 0.67 0 0.34 0 0 Z " fill="#000100" transform="translate(539,868)"/>
<path d="M0 0 C1.98 0 3.96 0 6 0 C6 0.33 6 0.66 6 1 C4.02 1 2.04 1 0 1 C0 0.67 0 0.34 0 0 Z " fill="#000100" transform="translate(451,494)"/>
<path d="M0 0 C1.98 0 3.96 0 6 0 C6 0.33 6 0.66 6 1 C4.02 1 2.04 1 0 1 C0 0.67 0 0.34 0 0 Z " fill="#000100" transform="translate(762,343)"/>
<path d="M0 0 C1.65 0 3.3 0 5 0 C5 0.33 5 0.66 5 1 C3.35 1 1.7 1 0 1 C0 0.67 0 0.34 0 0 Z " fill="#000100" transform="translate(632,868)"/>
<path d="M0 0 C1.65 0 3.3 0 5 0 C5 0.33 5 0.66 5 1 C3.35 1 1.7 1 0 1 C0 0.67 0 0.34 0 0 Z " fill="#E8F8F8" transform="translate(600,844)"/>
<path d="M0 0 C0.66 0.33 1.32 0.66 2 1 C1.01 1.66 0.02 2.32 -1 3 C-0.67 2.01 -0.34 1.02 0 0 Z " fill="#5D6666" transform="translate(602,765)"/>
<path d="M0 0 C1.65 0 3.3 0 5 0 C5 0.33 5 0.66 5 1 C3.35 1 1.7 1 0 1 C0 0.67 0 0.34 0 0 Z " fill="#010506" transform="translate(1016,755)"/>
<path d="M0 0 C0.33 0 0.66 0 1 0 C1 1.65 1 3.3 1 5 C0.67 5 0.34 5 0 5 C0 3.35 0 1.7 0 0 Z " fill="#000001" transform="translate(906,701)"/>
<path d="M0 0 C4 1 4 1 4 1 Z " fill="#000100" transform="translate(577,868)"/>
<path d="M0 0 C4 1 4 1 4 1 Z " fill="#000000" transform="translate(566,868)"/>
<path d="M0 0 C4 1 4 1 4 1 Z " fill="#000100" transform="translate(548,868)"/>
<path d="M0 0 C4 1 4 1 4 1 Z " fill="#000100" transform="translate(518,868)"/>
<path d="M0 0 C4 1 4 1 4 1 Z " fill="#000001" transform="translate(507,868)"/>
<path d="M0 0 C4 1 4 1 4 1 Z " fill="#000000" transform="translate(489,868)"/>
<path d="M0 0 C3 1 3 1 3 1 Z " fill="#000100" transform="translate(763,868)"/>
<path d="M0 0 C3 1 3 1 3 1 Z " fill="#000100" transform="translate(459,868)"/>
<path d="" fill="#000000" transform="translate(0,0)"/>
<path d="" fill="#4E5656" transform="translate(0,0)"/>
<path d="" fill="#000002" transform="translate(0,0)"/>
<path d="" fill="#000002" transform="translate(0,0)"/>
<path d="M0 0 C0.33 0.66 0.66 1.32 1 2 C0.34 1.67 -0.32 1.34 -1 1 C-0.67 0.67 -0.34 0.34 0 0 Z " fill="#010506" transform="translate(448,720)"/>
<path d="M0 0 C3 1 3 1 3 1 Z " fill="#E8F8F8" transform="translate(817,716)"/>
<path d="M0 0 C3 1 3 1 3 1 Z " fill="#000001" transform="translate(587,476)"/>
<path d="M0 0 C2 1 2 1 2 1 Z " fill="#000002" transform="translate(783,868)"/>
<path d="M0 0 C2 1 2 1 2 1 Z " fill="#000001" transform="translate(675,868)"/>
<path d="M0 0 C2 1 2 1 2 1 Z " fill="#000100" transform="translate(668,868)"/>
<path d="" fill="#000001" transform="translate(0,0)"/>
<path d="" fill="#010506" transform="translate(0,0)"/>
<path d="" fill="#010506" transform="translate(0,0)"/>
<path d="" fill="#000002" transform="translate(0,0)"/>
<path d="" fill="#E8F8F8" transform="translate(0,0)"/>
<path d="" fill="#E8F8F8" transform="translate(0,0)"/>
<path d="M0 0 C2 1 2 1 2 1 Z " fill="#000100" transform="translate(470,845)"/>
<path d="M0 0 C2 1 2 1 2 1 Z " fill="#010506" transform="translate(350,783)"/>
<path d="M0 0 C2 1 2 1 2 1 Z " fill="#000100" transform="translate(1024,761)"/>
<path d="M0 0 C2 1 2 1 2 1 Z " fill="#010506" transform="translate(1007,755)"/>
<path d="M0 0 C2 1 2 1 2 1 Z " fill="#010506" transform="translate(575,731)"/>
<path d="M0 0 C2 1 2 1 2 1 Z " fill="#E8F8F8" transform="translate(708,716)"/>
<path d="M0 0 C2 1 2 1 2 1 Z " fill="#000002" transform="translate(583,658)"/>
<path d="M0 0 C2 1 2 1 2 1 Z " fill="#000002" transform="translate(605,653)"/>
<path d="" fill="#000002" transform="translate(0,0)"/>
<path d="" fill="#000002" transform="translate(0,0)"/>
<path d="M0 0 C2 1 2 1 2 1 Z " fill="#000100" transform="translate(594,453)"/>
<path d="" fill="#000100" transform="translate(0,0)"/>
<path d="" fill="#010506" transform="translate(0,0)"/>
<path d="" fill="#000100" transform="translate(0,0)"/>
<path d="" fill="#000100" transform="translate(0,0)"/>
<path d="" fill="#000100" transform="translate(0,0)"/>
<path d="" fill="#000100" transform="translate(0,0)"/>
<path d="" fill="#000002" transform="translate(0,0)"/>
<path d="" fill="#000100" transform="translate(0,0)"/>
<path d="" fill="#000100" transform="translate(0,0)"/>
<path d="" fill="#000100" transform="translate(0,0)"/>
<path d="" fill="#E8F8F8" transform="translate(0,0)"/>
<path d="" fill="#000100" transform="translate(0,0)"/>
<path d="" fill="#010506" transform="translate(0,0)"/>
<path d="" fill="#010506" transform="translate(0,0)"/>
<path d="" fill="#E8F8F8" transform="translate(0,0)"/>
<path d="" fill="#010506" transform="translate(0,0)"/>
<path d="" fill="#E8F8F8" transform="translate(0,0)"/>
<path d="" fill="#E8F8F8" transform="translate(0,0)"/>
<path d="" fill="#E8F8F8" transform="translate(0,0)"/>
<path d="" fill="#E8F8F8" transform="translate(0,0)"/>
<path d="" fill="#E8F8F8" transform="translate(0,0)"/>
<path d="" fill="#000100" transform="translate(0,0)"/>
<path d="" fill="#010506" transform="translate(0,0)"/>
<path d="" fill="#010506" transform="translate(0,0)"/>
<path d="" fill="#000002" transform="translate(0,0)"/>
<path d="" fill="#E8F8F8" transform="translate(0,0)"/>
<path d="" fill="#010506" transform="translate(0,0)"/>
<path d="" fill="#010506" transform="translate(0,0)"/>
<path d="" fill="#E8F8F8" transform="translate(0,0)"/>
<path d="" fill="#E8F8F8" transform="translate(0,0)"/>
<path d="" fill="#E8F8F8" transform="translate(0,0)"/>
<path d="" fill="#000002" transform="translate(0,0)"/>
<path d="" fill="#000002" transform="translate(0,0)"/>
<path d="" fill="#E8F8F8" transform="translate(0,0)"/>
<path d="" fill="#010506" transform="translate(0,0)"/>
<path d="" fill="#000002" transform="translate(0,0)"/>
<path d="" fill="#000002" transform="translate(0,0)"/>
<path d="" fill="#E8F8F8" transform="translate(0,0)"/>
<path d="" fill="#000002" transform="translate(0,0)"/>
<path d="" fill="#010506" transform="translate(0,0)"/>
<path d="" fill="#E8F8F8" transform="translate(0,0)"/>
<path d="" fill="#010506" transform="translate(0,0)"/>
<path d="" fill="#010506" transform="translate(0,0)"/>
<path d="" fill="#E8F8F8" transform="translate(0,0)"/>
<path d="" fill="#010506" transform="translate(0,0)"/>
<path d="" fill="#000100" transform="translate(0,0)"/>
<path d="" fill="#000002" transform="translate(0,0)"/>
<path d="" fill="#E8F8F8" transform="translate(0,0)"/>
<path d="" fill="#000002" transform="translate(0,0)"/>
<path d="" fill="#E8F8F8" transform="translate(0,0)"/>
<path d="" fill="#000100" transform="translate(0,0)"/>
<path d="" fill="#000002" transform="translate(0,0)"/>
<path d="" fill="#000100" transform="translate(0,0)"/>
<path d="" fill="#010506" transform="translate(0,0)"/>
<path d="" fill="#E8F8F8" transform="translate(0,0)"/>
<path d="" fill="#010506" transform="translate(0,0)"/>
<path d="" fill="#000100" transform="translate(0,0)"/>
<path d="" fill="#010506" transform="translate(0,0)"/>
<path d="" fill="#E8F8F8" transform="translate(0,0)"/>
<path d="" fill="#E8F8F8" transform="translate(0,0)"/>
<path d="" fill="#010506" transform="translate(0,0)"/>
<path d="" fill="#010506" transform="translate(0,0)"/>
<path d="" fill="#E8F8F8" transform="translate(0,0)"/>
<path d="" fill="#E8F8F8" transform="translate(0,0)"/>
<path d="" fill="#010506" transform="translate(0,0)"/>
<path d="" fill="#000100" transform="translate(0,0)"/>
<path d="" fill="#E8F8F8" transform="translate(0,0)"/>
<path d="" fill="#E8F8F8" transform="translate(0,0)"/>
<path d="" fill="#E8F8F8" transform="translate(0,0)"/>
<path d="" fill="#010506" transform="translate(0,0)"/>
<path d="" fill="#E8F8F8" transform="translate(0,0)"/>
<path d="" fill="#000002" transform="translate(0,0)"/>
<path d="" fill="#000100" transform="translate(0,0)"/>
<path d="" fill="#010506" transform="translate(0,0)"/>
<path d="" fill="#010506" transform="translate(0,0)"/>
<path d="" fill="#000002" transform="translate(0,0)"/>
<path d="" fill="#000002" transform="translate(0,0)"/>
<path d="" fill="#000002" transform="translate(0,0)"/>
<path d="" fill="#E8F8F8" transform="translate(0,0)"/>
<path d="" fill="#E8F8F8" transform="translate(0,0)"/>
<path d="" fill="#E8F8F8" transform="translate(0,0)"/>
<path d="" fill="#E8F8F8" transform="translate(0,0)"/>
<path d="" fill="#E8F8F8" transform="translate(0,0)"/>
<path d="" fill="#E8F8F8" transform="translate(0,0)"/>
<path d="" fill="#E8F8F8" transform="translate(0,0)"/>
<path d="" fill="#E8F8F8" transform="translate(0,0)"/>
<path d="" fill="#E8F8F8" transform="translate(0,0)"/>
<path d="" fill="#E8F8F8" transform="translate(0,0)"/>
<path d="" fill="#E8F8F8" transform="translate(0,0)"/>
<path d="" fill="#000100" transform="translate(0,0)"/>
<path d="" fill="#000100" transform="translate(0,0)"/>
<path d="" fill="#000002" transform="translate(0,0)"/>
<path d="" fill="#010506" transform="translate(0,0)"/>
<path d="" fill="#010506" transform="translate(0,0)"/>
<path d="" fill="#000100" transform="translate(0,0)"/>
<path d="" fill="#010506" transform="translate(0,0)"/>
<path d="" fill="#000002" transform="translate(0,0)"/>
<path d="" fill="#000002" transform="translate(0,0)"/>
<path d="" fill="#000002" transform="translate(0,0)"/>
<path d="" fill="#000002" transform="translate(0,0)"/>
<path d="" fill="#000100" transform="translate(0,0)"/>
<path d="" fill="#000002" transform="translate(0,0)"/>
<path d="" fill="#000002" transform="translate(0,0)"/>
<path d="" fill="#E8F8F8" transform="translate(0,0)"/>
<path d="" fill="#E8F8F8" transform="translate(0,0)"/>
<path d="" fill="#000100" transform="translate(0,0)"/>
<path d="" fill="#000100" transform="translate(0,0)"/>
<path d="" fill="#000002" transform="translate(0,0)"/>
<path d="" fill="#000002" transform="translate(0,0)"/>
<path d="" fill="#000002" transform="translate(0,0)"/>
<path d="" fill="#000100" transform="translate(0,0)"/>
<path d="" fill="#E8F8F8" transform="translate(0,0)"/>
<path d="" fill="#000002" transform="translate(0,0)"/>
<path d="" fill="#000002" transform="translate(0,0)"/>
<path d="" fill="#E8F8F8" transform="translate(0,0)"/>
<path d="" fill="#E8F8F8" transform="translate(0,0)"/>
<path d="" fill="#010506" transform="translate(0,0)"/>
</svg>
